<?xml version="1.0" encoding="UTF-8"?>
<svg width="37px" height="59px" viewBox="0 0 37 59" version="1.1" xmlns="http://www.w3.org/2000/svg" xmlns:xlink="http://www.w3.org/1999/xlink">
    <!-- Generator: sketchtool 55.2 (78181) - https://sketchapp.com -->
    <title>44E0BCFF-CB4B-432C-AB3D-0F51A36D7619</title>
    <desc>Created with sketchtool.</desc>
    <g id="Page-1" stroke="none" stroke-width="1" fill="none" fill-rule="evenodd">
        <g id="home" transform="translate(-1331.000000, -637.000000)" fill="#1B70B9" fill-rule="nonzero">
            <g id="banner" transform="translate(0.000000, 186.000000)">
                <g id="slider" transform="translate(51.000000, 451.000000)">
                    <path d="M1309.01522,57.8314919 L1280.2162,30.2900857 C1279.9368,30.0228872 1279.92691,29.5797821 1280.1941,29.3003827 C1280.19959,29.2946421 1280.20518,29.2889953 1280.21086,29.2834448 L1308.98532,1.17587599 C1309.37112,0.799013887 1309.98627,0.79598217 1310.37577,1.16902325 L1315.94596,6.50384364 C1316.34482,6.88585002 1316.35849,7.51886757 1315.97648,7.91772791 C1315.96876,7.92579392 1315.9609,7.93372994 1315.9529,7.94153263 L1293.65332,29.7155229 L1315.90843,50.9947897 C1316.30761,51.3764643 1316.3218,52.0094703 1315.94013,52.4086482 C1315.93243,52.4166946 1315.92461,52.4246119 1315.91665,52.432397 L1310.40566,57.8236131 C1310.02014,58.20076 1309.40499,58.2042457 1309.01522,57.8314919 Z" id="Shape" transform="translate(1298.127141, 29.500003) rotate(-180.000000) translate(-1298.127141, -29.500003) "></path>
                </g>
            </g>
        </g>
    </g>
</svg>