<?xml version="1.0" encoding="UTF-8"?>
<svg width="38px" height="59px" viewBox="0 0 38 59" version="1.1" xmlns="http://www.w3.org/2000/svg" xmlns:xlink="http://www.w3.org/1999/xlink">
    <!-- Generator: sketchtool 55.2 (78181) - https://sketchapp.com -->
    <title>BEA075D0-DF85-46BE-808A-8414149367EF</title>
    <desc>Created with sketchtool.</desc>
    <g id="Page-1" stroke="none" stroke-width="1" fill="none" fill-rule="evenodd">
        <g id="home" transform="translate(-51.000000, -637.000000)" fill="#1B70B9" fill-rule="nonzero">
            <g id="banner" transform="translate(0.000000, 186.000000)">
                <g id="slider" transform="translate(51.000000, 451.000000)">
                    <path d="M29.8224386,57.8314919 L1.02341884,30.2900857 C0.744019421,30.0228872 0.734128567,29.5797821 1.001327,29.3003827 C1.00681696,29.2946421 1.01240423,29.2889953 1.01808639,29.2834448 L29.7925446,1.17587599 C30.1783483,0.799013887 30.7934974,0.79598217 31.1829969,1.16902325 L36.7531874,6.50384364 C37.1520477,6.88585002 37.1657106,7.51886757 36.7837042,7.91772791 C36.775979,7.92579392 36.7681193,7.93372994 36.7601282,7.94153263 L14.4605418,29.7155229 L36.7156578,50.9947897 C37.1148356,51.3764643 37.1290248,52.0094703 36.7473502,52.4086482 C36.7396566,52.4166946 36.7318292,52.4246119 36.7238712,52.432397 L31.2128858,57.8236131 C30.8273603,58.20076 30.2122133,58.2042457 29.8224386,57.8314919 Z" id="Shape"></path>
                </g>
            </g>
        </g>
    </g>
</svg>