<svg xmlns="http://www.w3.org/2000/svg" width="39" height="29" viewBox="0 0 39 29">
    <g fill="none" fill-rule="evenodd">
        <g fill="#2E7CBF">
            <g>
                <g>
                    <g>
                        <g>
                            <g>
                                <path fill-rule="nonzero" d="M34.239 0H4.769C2.14 0 0 2.09 0 4.66v19.68C0 26.91 2.138 29 4.77 29h29.46c2.632 0 4.77-2.09 4.77-4.66V4.668C39.008 2.098 36.87 0 34.239 0zm2.59 24.34c0 1.396-1.162 2.531-2.59 2.531H4.769c-1.428 0-2.59-1.135-2.59-2.53V4.667c0-1.396 1.162-2.531 2.59-2.531h29.462c1.428 0 2.59 1.135 2.59 2.53V24.34h.008z" transform="translate(-911 -657) translate(211 326) translate(606 28) translate(93.77 34) translate(.23 257) translate(0 12)"/>
                                <path d="M24.418 15.249l9.216-8.38c.429-.395.468-1.067.078-1.51-.39-.434-1.052-.474-1.49-.079L19.515 16.846l-2.48-2.245c-.007-.008-.015-.016-.015-.024-.055-.055-.11-.103-.172-.15L6.758 5.273c-.437-.396-1.1-.356-1.49.086-.389.443-.35 1.115.087 1.51l9.325 8.451-9.286 8.814c-.421.404-.445 1.075-.047 1.51.21.222.491.34.772.34.257 0 .514-.095.717-.284l9.427-8.941 2.557 2.316c.203.182.452.269.702.269.25 0 .506-.095.701-.277l2.628-2.387 9.372 9.028c.203.197.468.292.725.292.28 0 .554-.11.764-.332.398-.427.382-1.107-.039-1.51l-9.255-8.91z" transform="translate(-911 -657) translate(211 326) translate(606 28) translate(93.77 34) translate(.23 257) translate(0 12)"/>
                            </g>
                        </g>
                    </g>
                </g>
            </g>
        </g>
    </g>
</svg>
