<svg xmlns="http://www.w3.org/2000/svg" width="46" height="45" viewBox="0 0 46 45">
    <g fill="none" fill-rule="evenodd">
        <g fill="#2E7CBF" fill-rule="nonzero">
            <g>
                <g>
                    <g>
                        <g>
                            <path d="M44 22.5C44 10.074 34.15 0 22 0S0 10.074 0 22.5 9.85 45 22 45s22-10.074 22-22.5zm-42 0C2 11.203 10.954 2.045 22 2.045S42 11.203 42 22.5c0 11.297-8.954 20.455-20 20.455S2 33.797 2 22.5z" transform="translate(-980 -771) translate(211 326) translate(606 28) translate(94 417) matrix(0 -1 -1 0 114.5 44.5)"/>
                            <path d="M22.217 33.75h-.22c-1.724.004-3.317-.04-4.867-.137-1.42-.089-2.717-.59-3.75-1.452-.997-.831-1.678-1.955-2.023-3.34-.3-1.206-.317-2.39-.332-3.534-.011-.822-.023-1.795-.025-2.785.002-.994.014-1.967.025-2.789.015-1.144.031-2.328.332-3.534.345-1.385 1.026-2.509 2.023-3.34 1.033-.861 2.33-1.363 3.75-1.452 1.55-.096 3.144-.141 4.872-.137 1.725-.003 3.318.041 4.868.137 1.42.089 2.717.59 3.75 1.452.997.831 1.678 1.955 2.023 3.34.3 1.206.317 2.39.332 3.534.011.822.023 1.795.025 2.785v.004c-.002.99-.014 1.963-.025 2.785-.015 1.144-.03 2.328-.332 3.534-.345 1.385-1.026 2.509-2.023 3.34-1.033.861-2.33 1.363-3.75 1.452-1.484.092-3.009.137-4.653.137zm-.22-1.758c1.697.004 3.255-.04 4.768-.134 1.075-.067 2.006-.423 2.769-1.06.705-.588 1.191-1.4 1.444-2.412.25-1.004.265-2.081.279-3.123.01-.816.022-1.783.024-2.763-.002-.98-.014-1.947-.024-2.763-.014-1.042-.029-2.12-.28-3.123-.252-1.013-.738-1.824-1.443-2.413-.763-.636-1.694-.992-2.769-1.06-1.513-.093-3.07-.137-4.763-.133-1.696-.004-3.254.04-4.767.134-1.075.067-2.006.423-2.769 1.06-.705.588-1.191 1.4-1.444 2.412-.25 1.004-.265 2.081-.279 3.123-.01.817-.022 1.784-.024 2.765.002.977.014 1.944.024 2.76.014 1.043.029 2.12.28 3.124.252 1.013.738 1.824 1.443 2.412.763.637 1.694.993 2.769 1.06 1.513.094 3.071.138 4.763.134zm-.04-3.999c-2.962 0-5.371-2.464-5.371-5.493 0-3.029 2.41-5.493 5.37-5.493 2.963 0 5.372 2.464 5.372 5.493 0 3.029-2.41 5.493-5.371 5.493zm0-9.228c-2.014 0-3.653 1.675-3.653 3.735 0 2.06 1.639 3.735 3.653 3.735 2.014 0 3.652-1.675 3.652-3.735 0-2.06-1.638-3.735-3.652-3.735zm5.973-3.516c-.712 0-1.29.59-1.29 1.318 0 .729.578 1.319 1.29 1.319.712 0 1.289-.59 1.289-1.319 0-.728-.577-1.318-1.29-1.318z" transform="translate(-980 -771) translate(211 326) translate(606 28) translate(94 417) matrix(0 -1 -1 0 114.5 44.5)"/>
                        </g>
                    </g>
                </g>
            </g>
        </g>
    </g>
</svg>
