<svg xmlns="http://www.w3.org/2000/svg" width="83" height="99" viewBox="0 0 83 99">
    <g fill="none" fill-rule="evenodd">
        <g fill-rule="nonzero">
            <g>
                <g>
                    <g>
                        <g>
                            <path fill="#FFF" d="M8.27 42.035L49.99 42.054 50.004 73.53 8.284 73.511z" transform="translate(-148 -496) translate(0 193) translate(148 303) translate(0 .545) translate(0 10.316) rotate(-42.743 29.137 57.782)"/>
                            <g>
                                <path fill="#FFF" d="M1.112 34.637S29.467 8.451 34.471 3.85c7.069-6.507 13.7 2.142 7.386 7.974L13.066 38.406" transform="translate(-148 -496) translate(0 193) translate(148 303) translate(0 .545) translate(0 10.316) translate(26.608)"/>
                                <path fill="#00B2E9" d="M14.058 39.517l-2.065-2.221 28.792-26.583c1.628-1.508 2.343-3.333 1.946-5-.278-1.23-1.112-2.182-2.264-2.539-1.509-.476-3.296.159-5.043 1.786L2.065 35.748 0 33.526 33.359 2.738C36.814-.476 39.872-.16 41.34.278c2.184.674 3.773 2.46 4.29 4.76.635 2.778-.398 5.635-2.86 7.896L14.058 39.517z" transform="translate(-148 -496) translate(0 193) translate(148 303) translate(0 .545) translate(0 10.316) translate(26.608)"/>
                            </g>
                            <g>
                                <path fill="#FFF" d="M1.51 14.998l12.072-11.15c7.069-6.506 13.7 2.143 7.386 7.975L8.896 22.973" transform="translate(-148 -496) translate(0 193) translate(148 303) translate(0 .545) translate(0 10.316) translate(38.124 23.409)"/>
                                <path fill="#00B2E9" d="M8.896 24.52c-.397 0-.834-.159-1.112-.476-.556-.635-.517-1.587.08-2.143l12.072-11.149c1.628-1.507 2.343-3.333 1.946-4.999-.278-1.23-1.112-2.182-2.224-2.54-1.51-.475-3.296.16-5.044 1.786L2.542 16.15c-.636.555-1.589.515-2.145-.08-.556-.635-.516-1.587.08-2.143L12.549 2.777c3.455-3.213 6.513-2.896 7.983-2.46 2.184.675 3.772 2.46 4.289 4.762.635 2.777-.398 5.634-2.86 7.895L9.89 24.124c-.239.237-.636.396-.993.396z" transform="translate(-148 -496) translate(0 193) translate(148 303) translate(0 .545) translate(0 10.316) translate(38.124 23.409)"/>
                            </g>
                            <g>
                                <path fill="#FFF" d="M3.654 50.904c-4.29-4.999-.517-13.966 6.79-24.321 4.687-6.626 6.95-20.116 6.95-20.116C19.42-1.11 30.222.555 29.824 7.896l-1.509 15.632" transform="translate(-148 -496) translate(0 193) translate(148 303) translate(0 .545) translate(0 10.316) translate(1.986 11.506)"/>
                                <path fill="#00B2E9" d="M3.654 52.412c-.437 0-.874-.198-1.152-.516C-1.827 46.818.357 38.248 9.213 25.71c4.409-6.269 6.672-19.362 6.672-19.48 1.35-5 5.64-6.627 9.055-6.111 3.256.516 6.671 3.214 6.393 7.856l-1.548 15.712c-.08.833-.834 1.468-1.668 1.349-.834-.08-1.43-.834-1.35-1.667l1.509-15.632c.158-2.936-1.986-4.325-3.853-4.642-2.184-.357-4.765.674-5.6 3.73-.079.436-2.342 13.767-7.187 20.591-7.824 11.11-10.127 18.648-6.87 22.457.556.635.476 1.587-.16 2.142-.238.278-.595.397-.952.397z" transform="translate(-148 -496) translate(0 193) translate(148 303) translate(0 .545) translate(0 10.316) translate(1.986 11.506)"/>
                            </g>
                            <g>
                                <path fill="#FFF" d="M1.747 12.657l9.571-8.848c7.07-6.507 13.701 2.142 7.387 7.975l-9.571 8.848" transform="translate(-148 -496) translate(0 193) translate(148 303) translate(0 .545) translate(0 10.316) translate(45.273 33.725)"/>
                                <path fill="#00B2E9" d="M9.134 22.179c-.397 0-.834-.159-1.112-.476-.556-.635-.516-1.587.08-2.143l9.57-8.847c1.628-1.508 2.343-3.333 1.946-5-.278-1.23-1.112-2.182-2.263-2.539-1.51-.476-3.297.159-5.044 1.786l-9.57 8.847c-.636.556-1.59.516-2.145-.08-.556-.634-.517-1.586.08-2.142l9.57-8.847C13.74-.476 16.759-.16 18.228.278c2.184.674 3.773 2.46 4.29 4.76.635 2.778-.398 5.635-2.86 7.896l-9.57 8.848c-.2.278-.597.397-.954.397z" transform="translate(-148 -496) translate(0 193) translate(148 303) translate(0 .545) translate(0 10.316) translate(45.273 33.725)"/>
                            </g>
                            <g>
                                <path fill="#FFF" d="M31.77 10.752l7.07-6.507c7.068-6.507 13.7 2.143 7.386 7.975 0 0-19.142 17.656-28.355 26.186-9.214 8.491-16.402.358-16.402.358" transform="translate(-148 -496) translate(0 193) translate(148 303) translate(0 .545) translate(0 10.316) translate(22.636 43.644)"/>
                                <path fill="#00B2E9" d="M9.372 43.763h-.556c-5.043-.238-8.3-3.889-8.419-4.008-.556-.634-.476-1.587.12-2.142.635-.556 1.588-.476 2.144.119.04.04 2.581 2.817 6.354 3.015 2.62.08 5.282-1.031 7.863-3.451l28.355-26.187c2.581-2.38 2.502-5.158 1.072-6.665-1.151-1.27-3.534-1.786-6.433.873l-7.07 6.506c-.635.556-1.588.516-2.144-.079-.556-.635-.516-1.587.08-2.142l7.069-6.507C42.017-.794 46.305 0 48.529 2.38c2.383 2.539 2.74 7.26-1.27 10.95L18.902 39.517c-3.058 2.817-6.274 4.246-9.53 4.246z" transform="translate(-148 -496) translate(0 193) translate(148 303) translate(0 .545) translate(0 10.316) translate(22.636 43.644)"/>
                            </g>
                            <g>
                                <path fill="#FFF" d="M24.106 21.266s-1.112 1.032-2.502 2.302c-1.39 1.27-3.296 1.666-5.004-.199C14.892 21.504 5.083 10.951 3.018 8.69c-2.065-2.222-.913-4.166 0-5 .914-.872 2.621-2.42 2.621-2.42" transform="translate(-148 -496) translate(0 193) translate(148 303) translate(0 .545) translate(0 10.316) translate(0 61.101)"/>
                                <path fill="#00B2E9" d="M19.181 26.186c-1.31 0-2.581-.595-3.693-1.785L1.906 9.72C.357 8.054.238 6.467.397 5.436c.238-1.429 1.112-2.42 1.589-2.857L4.567.159 6.632 2.38 4.051 4.76c-.12.12-.556.556-.675 1.111-.08.516.158 1.111.714 1.746l13.582 14.68c.596.635 1.51 1.349 2.86.119l2.501-2.301c.636-.556 1.589-.516 2.145.08.556.634.516 1.586-.08 2.142l-2.501 2.3c-1.033 1.032-2.224 1.548-3.416 1.548z" transform="translate(-148 -496) translate(0 193) translate(148 303) translate(0 .545) translate(0 10.316) translate(0 61.101)"/>
                            </g>
                        </g>
                        <g fill="#00B2E9">
                            <path d="M25.734 11.863c-.278 0-.516-.119-.715-.317-.357-.397-.318-.992.04-1.35l4.448-4.126c.397-.357.993-.317 1.35.04.357.397.318.992-.04 1.35l-4.448 4.125c-.158.199-.397.278-.635.278zM10.802 10.236c-.278 0-.516-.119-.715-.317l-4.13-4.444c-.357-.396-.318-.992.04-1.349.397-.357.992-.317 1.35.04l4.13 4.444c.357.396.318.992-.04 1.349-.159.158-.397.277-.635.277zM34.789 20.235s-.04 0 0 0l-6.077-.238c-.516-.04-.953-.476-.913-.992.04-.516.477-.992.993-.913l6.036.238c.516.04.953.476.914.992 0 .516-.437.913-.953.913zM7.109 15.712c-.08 0-.16 0-.199-.04L.993 14.283c-.516-.119-.834-.634-.715-1.15.12-.516.635-.833 1.152-.714l5.917 1.388c.516.12.834.635.715 1.15-.12.477-.517.755-.953.755zM29.586 30.51c-.278 0-.516-.118-.715-.316l-4.13-4.444c-.357-.397-.318-.992.04-1.35.397-.356.993-.317 1.35.04l4.13 4.444c.358.397.318.992-.04 1.35-.158.198-.397.277-.635.277zM20.611 35.272c-.477 0-.874-.357-.953-.833l-.914-5.991c-.079-.516.278-.992.795-1.071.516-.04.993.277 1.072.793l.913 5.991c.08.516-.278.992-.794 1.071-.04.04-.08.04-.119.04zM17.831 8.253c-.556-.04-.993-.476-.953-.992l.238-6.031c0-.516.477-.913.993-.913.516.04.953.477.913.992l-.238 6.031c0 .476-.437.913-.953.913z" transform="translate(-148 -496) translate(0 193) translate(148 303) translate(0 .545) translate(46.861)"/>
                        </g>
                    </g>
                </g>
            </g>
        </g>
    </g>
</svg>
