<svg xmlns="http://www.w3.org/2000/svg" width="46" height="45" viewBox="0 0 46 45">
    <g fill="none" fill-rule="evenodd">
        <g>
            <g>
                <g>
                    <g>
                        <g>
                            <path fill="#2E7CBF" fill-rule="nonzero" d="M44 22.5C44 10.074 34.15 0 22 0S0 10.074 0 22.5 9.85 45 22 45s22-10.074 22-22.5zm-42 0C2 11.203 10.954 2.045 22 2.045S42 11.203 42 22.5c0 11.297-8.954 20.455-20 20.455S2 33.797 2 22.5z" transform="translate(-1051 -771) translate(211 326) translate(606 28) translate(94 417) matrix(0 -1 -1 0 185.5 44.5)"/>
                            <g stroke="#2E7CBF" stroke-width="2">
                                <path d="M21.957 8.925v8.163c-.013.098-.037.197-.049.283-.108.886-.398 1.686-.918 2.4C19.915 21.262 18.466 22 16.655 22H2.246c-.132 0-.265 0-.386-.012-2.03-.099-3.889-1.478-4.553-3.423-.17-.48-.242-.997-.35-1.49V8.912c.012-.098.036-.197.048-.283.109-.886.398-1.686.918-2.4C-1.002 4.738.447 4 2.258 4h14.409c.133 0 .265 0 .386.012 2.03.099 3.889 1.478 4.553 3.423.17.48.242.997.35 1.49zM5.962 13.496v3.085c0 .408.149.512.516.338 2.064-1.001 4.14-2.003 6.203-3.015.115-.059.276-.198.276-.291-.012-.117-.15-.268-.264-.326-2.064-1.072-4.128-2.13-6.192-3.19-.379-.198-.54-.093-.54.326-.01 1.024 0 2.049 0 3.073z" transform="translate(-1051 -771) translate(211 326) translate(606 28) translate(94 417) matrix(0 -1 -1 0 185.5 44.5) translate(13.043 9) rotate(-90 9.457 13)"/>
                            </g>
                        </g>
                    </g>
                </g>
            </g>
        </g>
    </g>
</svg>
